<?xml version="1.0" encoding="utf-8"?>
<!-- Generator: Adobe Illustrator 23.1.1, SVG Export Plug-In . SVG Version: 6.00 Build 0)  -->
<svg version="1.1" id="Layer_1" xmlns="http://www.w3.org/2000/svg" xmlns:xlink="http://www.w3.org/1999/xlink" x="0px" y="0px"
	 viewBox="0 0 2564.4 1553.9" style="enable-background:new 0 0 2564.4 1553.9;" xml:space="preserve">
<style type="text/css">
	.st0{opacity:0.1;}
	.st1{fill:none;stroke:#000000;stroke-miterlimit:10;}
	.st2{fill:none;stroke:#000000;stroke-width:2;stroke-miterlimit:10;}
	.st3{fill:none;stroke:#000000;stroke-width:0.7;stroke-miterlimit:10;}
</style>
<g class="st0">
	<g>
		<path d="M1118.3,1535.2c5.1-1.2,10.2,1.9,11.5,7c1.2,5.1-1.9,10.2-7,11.5s-10.2-1.9-11.5-7
			C1110.1,1541.5,1113.2,1536.4,1118.3,1535.2z M1121.6,1548.7c2.4-0.6,3.9-3,3.3-5.4s-3-3.9-5.4-3.3c-2.4,0.6-3.9,3-3.3,5.4
			C1116.8,1547.8,1119.2,1549.3,1121.6,1548.7z"/>
		<path d="M1013.1,1461.4c5.1-1.2,10.2,1.9,11.5,7c1.2,5.1-1.9,10.2-7,11.5c-5.1,1.2-10.2-1.9-11.5-7S1008,1462.6,1013.1,1461.4z
			 M1016.4,1475c2.4-0.6,3.9-3,3.3-5.4s-3-3.9-5.4-3.3c-2.4,0.6-3.9,3-3.3,5.4S1014,1475.6,1016.4,1475z"/>
		<path d="M2539.5,27.3c10.8-2.6,21.7,4.1,24.3,14.9c2.6,10.8-4.1,21.7-14.9,24.4c-10.8,2.6-21.7-4.1-24.4-14.9
			C2522,40.8,2528.7,29.9,2539.5,27.3z M2546.5,56.2c5.1-1.2,8.2-6.4,7-11.5s-6.4-8.2-11.5-7c-5.1,1.2-8.2,6.4-7,11.5
			C2536.3,54.2,2541.4,57.4,2546.5,56.2z"/>
		<path d="M2465.6,0.5c8.9-2.1,17.8,3.3,19.9,12.2c2.1,8.9-3.3,17.8-12.2,19.9c-8.9,2.1-17.8-3.3-19.9-12.2
			C2451.2,11.5,2456.7,2.6,2465.6,0.5z M2471.3,24.1c4.2-1,6.7-5.2,5.7-9.4c-1-4.2-5.2-6.7-9.4-5.7c-4.2,1-6.7,5.2-5.7,9.4
			S2467.1,25.1,2471.3,24.1z"/>
		<path d="M1378.6,313.7c11.7-2.8,23.5,4.4,26.3,16.1c2.8,11.7-4.4,23.5-16.1,26.3c-11.7,2.8-23.5-4.4-26.3-16.1
			C1359.7,328.3,1366.9,316.5,1378.6,313.7z M1386.1,344.9c5.5-1.3,8.9-6.9,7.6-12.4c-1.3-5.5-6.9-8.9-12.4-7.6
			c-5.5,1.3-8.9,6.9-7.6,12.4C1375.1,342.8,1380.6,346.2,1386.1,344.9z"/>
		<path d="M452.9,627.7c5.1-1.2,10.2,1.9,11.5,7s-1.9,10.2-7,11.5s-10.2-1.9-11.5-7S447.8,628.9,452.9,627.7z M456.2,641.3
			c2.4-0.6,3.9-3,3.3-5.4s-3-3.9-5.4-3.3s-3.9,3-3.3,5.4S453.8,641.8,456.2,641.3z"/>
		<path d="M505.8,1454c5.1-1.2,10.2,1.9,11.5,7s-1.9,10.2-7,11.5s-10.2-1.9-11.5-7S500.7,1455.2,505.8,1454z M509.1,1467.5
			c2.4-0.6,3.9-3,3.3-5.4s-3-3.9-5.4-3.3c-2.4,0.6-3.9,3-3.3,5.4C504.3,1466.6,506.7,1468.1,509.1,1467.5z"/>
		<path d="M94.2,1077.6c5.1-1.2,10.2,1.9,11.5,7s-1.9,10.2-7,11.5c-5.1,1.2-10.2-1.9-11.5-7C86,1084,89.1,1078.8,94.2,1077.6z
			 M97.5,1091.2c2.4-0.6,3.9-3,3.3-5.4c-0.6-2.4-3-3.9-5.4-3.3c-2.4,0.6-3.9,3-3.3,5.4C92.7,1090.3,95.1,1091.8,97.5,1091.2z"/>
		<path d="M195.8,1517.2c5.1-1.2,10.2,1.9,11.5,7c1.2,5.1-1.9,10.2-7,11.5c-5.1,1.2-10.2-1.9-11.5-7S190.7,1518.4,195.8,1517.2z
			 M199.1,1530.8c2.4-0.6,3.9-3,3.3-5.4s-3-3.9-5.4-3.3c-2.4,0.6-3.9,3-3.3,5.4C194.3,1529.9,196.7,1531.3,199.1,1530.8z"/>
		<path d="M1685.5,1164.4c5.1-1.2,10.2,1.9,11.5,7c1.2,5.1-1.9,10.2-7,11.5s-10.2-1.9-11.5-7
			C1677.3,1170.7,1680.4,1165.6,1685.5,1164.4z M1688.8,1177.9c2.4-0.6,3.9-3,3.3-5.4s-3-3.9-5.4-3.3c-2.4,0.6-3.9,3-3.3,5.4
			S1686.4,1178.5,1688.8,1177.9z"/>
		<path d="M1295,960.7c5.1-1.2,10.2,1.9,11.5,7c1.2,5.1-1.9,10.2-7,11.5s-10.2-1.9-11.5-7C1286.8,967.1,1290,961.9,1295,960.7z
			 M1298.3,974.3c2.4-0.6,3.9-3,3.3-5.4c-0.6-2.4-3-3.9-5.4-3.3c-2.4,0.6-3.9,3-3.3,5.4C1293.5,973.4,1295.9,974.9,1298.3,974.3z"/>
		<path d="M334.9,656.2c5.1-1.2,10.2,1.9,11.5,7s-1.9,10.2-7,11.5s-10.2-1.9-11.5-7S329.8,657.4,334.9,656.2z M338.2,669.7
			c2.4-0.6,3.9-3,3.3-5.4c-0.6-2.4-3-3.9-5.4-3.3s-3.9,3-3.3,5.4S335.8,670.3,338.2,669.7z"/>
		<path d="M1224.6,926.6c5.1-1.2,10.2,1.9,11.5,7c1.2,5.1-1.9,10.2-7,11.5c-5.1,1.2-10.2-1.9-11.5-7
			C1216.4,933,1219.5,927.8,1224.6,926.6z M1227.9,940.2c2.4-0.6,3.9-3,3.3-5.4s-3-3.9-5.4-3.3s-3.9,3-3.3,5.4
			C1223.1,939.3,1225.5,940.7,1227.9,940.2z"/>
		<path d="M2434.3,440.6c5.1-1.2,10.2,1.9,11.5,7c1.2,5.1-1.9,10.2-7,11.5c-5.1,1.2-10.2-1.9-11.5-7S2429.3,441.9,2434.3,440.6z
			 M2437.6,454.2c2.4-0.6,3.9-3,3.3-5.4c-0.6-2.4-3-3.9-5.4-3.3s-3.9,3-3.3,5.4S2435.2,454.8,2437.6,454.2z"/>
		<path d="M402,953c5.1-1.2,10.2,1.9,11.5,7s-1.9,10.2-7,11.5c-5.1,1.2-10.2-1.9-11.5-7C393.7,959.3,396.9,954.2,402,953z
			 M405.2,966.5c2.4-0.6,3.9-3,3.3-5.4c-0.6-2.4-3-3.9-5.4-3.3c-2.4,0.6-3.9,3-3.3,5.4C400.4,965.6,402.8,967.1,405.2,966.5z"/>
		<path d="M305.4,1226.2c5.1-1.2,10.2,1.9,11.5,7s-1.9,10.2-7,11.5c-5.1,1.2-10.2-1.9-11.5-7
			C297.2,1232.5,300.4,1227.4,305.4,1226.2z M308.7,1239.7c2.4-0.6,3.9-3,3.3-5.4c-0.6-2.4-3-3.9-5.4-3.3c-2.4,0.6-3.9,3-3.3,5.4
			C303.9,1238.8,306.3,1240.3,308.7,1239.7z"/>
		<path d="M103.4,1007.7c5.1-1.2,10.2,1.9,11.5,7s-1.9,10.2-7,11.5c-5.1,1.2-10.2-1.9-11.5-7C95.1,1014,98.3,1008.9,103.4,1007.7z
			 M106.6,1021.2c2.4-0.6,3.9-3,3.3-5.4c-0.6-2.4-3-3.9-5.4-3.3c-2.4,0.6-3.9,3-3.3,5.4S104.2,1021.8,106.6,1021.2z"/>
		<path d="M1274.1,719.6c10.9-2.6,22,4.1,24.6,15s-4.1,22-15,24.6c-10.9,2.6-22-4.1-24.6-15S1263.2,722.3,1274.1,719.6z
			 M1281.1,748.8c5.1-1.2,8.3-6.4,7.1-11.6s-6.4-8.3-11.6-7.1c-5.1,1.2-8.3,6.4-7.1,11.6S1276,750,1281.1,748.8z"/>
		<path d="M352.1,746.6c15.6-3.8,31.3,5.8,35,21.4c3.8,15.6-5.8,31.3-21.4,35c-15.6,3.8-31.3-5.8-35-21.4S336.6,750.4,352.1,746.6z
			 M362.2,788.1c7.3-1.8,11.8-9.2,10.1-16.5c-1.8-7.3-9.2-11.8-16.5-10.1c-7.3,1.8-11.8,9.2-10.1,16.5
			C347.4,785.3,354.8,789.9,362.2,788.1z"/>
		<path d="M157,347.2c34.6-8.4,69.6,13,78,47.7c8.4,34.6-13,69.6-47.7,78c-34.6,8.4-69.6-13-78-47.7S122.3,355.6,157,347.2z
			 M179.3,439.6c16.3-3.9,26.4-20.4,22.4-36.7c-3.9-16.3-20.4-26.4-36.7-22.4c-16.3,3.9-26.4,20.4-22.4,36.7
			C146.5,433.5,163,443.6,179.3,439.6z"/>
		<path d="M1389.7,421.2c10.3-2.5,20.7,3.9,23.2,14.2s-3.9,20.7-14.2,23.2c-10.3,2.5-20.7-3.9-23.2-14.2
			C1373.1,434.1,1379.4,423.6,1389.7,421.2z M1396.4,448.7c4.9-1.2,7.9-6.1,6.7-10.9s-6.1-7.9-10.9-6.7c-4.9,1.2-7.9,6.1-6.7,10.9
			C1386.6,446.9,1391.5,449.9,1396.4,448.7z"/>
		<path d="M1557.7,962.6c11.7-2.8,23.5,4.4,26.4,16.1s-4.4,23.5-16.1,26.4c-11.7,2.8-23.5-4.4-26.4-16.1
			C1538.8,977.3,1546,965.5,1557.7,962.6z M1565.4,994.5c5.9-1.4,9.5-7.4,8.1-13.2c-1.4-5.9-7.4-9.5-13.2-8.1
			c-5.9,1.4-9.5,7.4-8.1,13.2S1559.6,996,1565.4,994.5z"/>
		<path d="M2537.1,133.3c5.9-1.4,11.8,2.2,13.2,8.1c1.4,5.9-2.2,11.8-8.1,13.2c-5.9,1.4-11.8-2.2-13.2-8.1
			C2527.6,140.6,2531.2,134.7,2537.1,133.3z M2541,149.3c3-0.7,4.8-3.7,4.1-6.6c-0.7-3-3.7-4.8-6.6-4.1c-3,0.7-4.8,3.7-4.1,6.6
			C2535.1,148.2,2538,150,2541,149.3z"/>
		<path d="M661.7,744.4c10-2.4,20.1,3.8,22.5,13.8c2.4,10-3.8,20.1-13.8,22.5s-20.1-3.8-22.5-13.8
			C645.5,757,651.7,746.9,661.7,744.4z M668.5,772.7c5.6-1.3,9-7,7.7-12.6c-1.3-5.6-7-9-12.6-7.7c-5.6,1.3-9,7-7.7,12.6
			C657.3,770.6,662.9,774.1,668.5,772.7z"/>
		<path d="M7.3,521.4c5.1-1.2,10.2,1.9,11.5,7c1.2,5.1-1.9,10.2-7,11.5s-10.2-1.9-11.5-7C-1,527.8,2.2,522.7,7.3,521.4z M10.5,535
			c2.4-0.6,3.9-3,3.3-5.4c-0.6-2.4-3-3.9-5.4-3.3c-2.4,0.6-3.9,3-3.3,5.4C5.7,534.1,8.1,535.6,10.5,535z"/>
	</g>
	<g>
		<path class="st1" d="M1126.2,1546.3c101.3,5,140.9-247.3,198.4-330.9c57.5-83.6,102.4-179.6,183.2-241.1
			c86.7-66,202.5-82.4,293-143.1c101.4-68.1,159.7-183.7,248.4-267.6c55.3-52.3,121.5-91.5,180.4-139.8
			c123.6-101.2,219.3-224.4,304.8-359.4c-60.1,104.4-132.8,185.7-226.3,261.8c-93.4,76.1-222.8,118.5-336.8,79.6
			c-94.5-32.2-207.3,24.8-288,83.6c-61.3,44.6-99.2,113.8-135.2,180.6c-44.8,83.4-174.5,82.8-262.1,118.5
			c-87.6,35.8-177,85.4-219.8,169.8c-42.3,83.3-166.3,87.8-256.8,111.2c-61.2,15.8-122.4,31.7-183.6,47.5
			c-105.9,27.4-204.7,82.7-309.2,115.1"/>
		<path class="st1" d="M2460.3,29.6c-70.4,108.1-47.9,211.2-141.5,254.9c-93.6,43.6-200.2,48-303.4,50
			c-103.3,2-209.3,2.7-305.5,40.2c-85.5,33.3-158.1,93.6-242.5,129.5c-191.5,81.6-420.1,29.3-611.1,112
			C779,649.7,711.5,704,631.9,731c-106.1,36.1-224.5,19.7-328.5-22c-104-41.8-196.5-107.4-287.8-172.4"/>
		<path class="st2" d="M112.4,1013.2c88.3-37.7,189.4-17.8,282.7,4.7c93.3,22.4,192.3,46.7,283.5,16.6
			c67.5-22.3,122.1-72,171.1-123.6c80.7-85.1,152.2-178.9,212.8-279.3c36.5-60.5,69.3-123.7,114.4-178
			c44.8-53.8,116.1-101.2,186.7-109.7c-24.3,17.2-63.7,21.5-91.5,35.4c-32.6,16.3-63.1,36.9-90.5,61
			c-54.8,48.1-97.6,110.2-121,179.4c-25.8,76.2-31.7,163.8-86.8,222.4c-34.5,36.6-83.2,55.8-130.5,72.8
			c-177,63.6-359.3,112.9-544.3,147c-65.2,12-132.2,13.1-197.6,24.1c3.3-0.4,6.5-0.8,9.8-1.2"/>
		<path class="st1" d="M1363.6,343.9C1086.8,463,1115,622.6,1036.1,788.7s-98.4,264.2-199.8,417.5c-27,40.8-170.8,70.8-209.7,100.5
			c-65.4,50-119.4,108.2-200.2,123.8c-84.7,16.4-131.8,76.6-216.6,93"/>
		<path class="st2" d="M2459,27.6c-110.4,143-224.2,157.7-362.8,191.8c-58.9,14.5-28.3,67.3-60.6,101.5
			c-29.4,31.2-74.8,41.9-110.7,65.3c-78.7,51.3-149.4,114-217.4,178.9c-73.5,70.1-144.2,143.3-222,208.7
			c-127.8,107.4-273.8,193.1-430,252.1c-116.6,44.1-239.7,73.9-347,137.3S508.9,1334.2,507,1458.9"/>
		<path class="st3" d="M2460.3,29.6c-86.3,129.6-217.8,139.6-341.4,220c-98.2,63.9-171,156.4-269.2,220.3
			C1717,556.3,1584.3,642.6,1451.6,729c-154.3,100.4-310.4,201.8-483.8,263.7c-103.2,36.9-213.2,59.4-322.4,50.4
			c-84-6.9-166.5-32.5-239.6-74.5"/>
		<path class="st1" d="M2534.3,64.4c-57,99.6-161.3,173.2-220,276.5c-70.2,123.4-117,265.6-223.3,359.8
			c-69.8,61.9-161.4,98.8-220.2,171.2c-73.3,90.2-86.3,224.1-176.5,297.5"/>
		<path class="st2" d="M2460.3,29.6c-101.2,142.2-313.8,189.1-471.6,364.3c-75.2,83.5-186.1,126.1-279.1,189.2
			c-117.8,79.9-236.8,160.3-368.8,213.6c-153.2,61.8-401.8,56.3-439.7-22.5c-67.9-141.1-366,8.5-441.8-128.6"/>
		<path class="st2" d="M2460.3,29.6c-93.6,135.1-170.4,275.7-293.6,384.4c-87.1,76.9-180.6,146.1-271.9,218
			c-74.6,58.7-147.7,119.3-220.8,179.8c-60.6,50.2-121.3,100.4-179.3,153.6c-99.4,91.2-190.9,191-273.1,297.9
			c-58.2,75.7-114.3,157.4-197.1,205"/>
		<path class="st2" d="M2536.5,65.5c1.7,8.4-4.9,20.6-9,28.2c-8.3,15.6,1.5,25.1,9.6,40.9"/>
		<path class="st1" d="M2534.3,64.4c-15.3,39.8-40.6,83.4-56,123.2c-11.4,29.6-23,59.6-41.4,85.4c-10,14.1-21.9,26.7-32,40.8
			s-18.4,30-19.9,47.2c-1.5,17.2,5.1,35.9,19.6,45.3c7.4,4.8,16.4,7,23.7,12c7.3,5,12.9,14.7,8.9,22.6"/>
		<path class="st2" d="M1262.9,728.1c-31.9-16.4-55.1-48.5-60.6-83.9s6.8-73.1,32.1-98.4c21.7-21.7,51.1-33.6,79.9-44.2
			c12.8-4.7,25.9-9.4,36.5-17.8c10.7-8.5,31.7-15.9,30.3-29.5"/>
		<path class="st1" d="M1363.6,343.9c-71.5-6.7-151.3,1.8-211.7,40.5c-38.4,24.6-71.2,57.1-108.8,82.9c-88,60.7-196.2,82-300,107.4
			c-41.1,10.1-85.9,23.7-108.4,59.5c-23.6,37.6-10.7,93.3,27,116.7"/>
		<path class="st1" d="M1299,960.4c-14.4-50.6-45.2-94.5-70.3-140.8c-25.1-46.2-45.1-98.9-35.1-150.5
			c11.6-59.7,60.3-104.1,106.1-144c27.1-23.6,54.3-47.2,81.4-70.8c-82.7,40.5-171.8,101.6-225.2,176.6
			c-31.5,44.3-56.9,102.7-33.2,151.6c13.7,28.2,40.8,46.7,64,67.7c23.2,21,44.6,49.7,40.1,80.6"/>
	</g>
</g>
</svg>
