<?xml version="1.0" encoding="utf-8"?>
<!-- Generator: Adobe Illustrator 23.1.1, SVG Export Plug-In . SVG Version: 6.00 Build 0)  -->
<svg version="1.1" id="Layer_1" xmlns="http://www.w3.org/2000/svg" xmlns:xlink="http://www.w3.org/1999/xlink" x="0px" y="0px"
	 viewBox="0 0 186.7 44.3" style="enable-background:new 0 0 186.7 44.3;" xml:space="preserve">
<style type="text/css">
	.st0{fill:url(#SVGID_1_);}
	.st1{fill:#65C190;}
</style>
<g>
	<linearGradient id="SVGID_1_" gradientUnits="userSpaceOnUse" x1="0.5925" y1="22.1471" x2="57.9312" y2="22.1471">
		<stop  offset="0" style="stop-color:#273477"/>
		<stop  offset="1" style="stop-color:#7A2A8D"/>
	</linearGradient>
	<path class="st0" d="M27.4,1.9v20.3c0,3.7-1.3,6.8-3.9,9.5c-2.6,2.6-5.8,3.9-9.5,3.9c-1.4,0-2.6-0.2-3.9-0.5c1-0.9,1.6-2.1,1.9-3.5
		c0.6,0.1,1.3,0.2,2,0.2c2.6,0,4.9-0.9,6.8-2.8c1.9-1.9,2.8-4.1,2.8-6.8c0-2.6-0.9-4.9-2.8-6.8c-1.9-1.9-4.1-2.8-6.8-2.8
		c-2.6,0-4.9,0.9-6.8,2.8c-1.9,1.9-2.8,4.1-2.8,6.8c0,0.7,0.1,1.4,0.2,2c-1.4,0.3-2.6,0.9-3.5,1.9c-0.4-1.2-0.6-2.5-0.6-3.9
		c0-3.7,1.3-6.8,3.9-9.5c2.6-2.6,5.8-3.9,9.5-3.9c3.7,0,6.8,1.3,9.5,3.9c0,0,0.1,0.1,0.1,0.1V1.9c0-0.5,0.2-1,0.6-1.4
		C24.5,0.2,24.9,0,25.4,0s1,0.2,1.3,0.6C27.2,0.9,27.4,1.4,27.4,1.9z M53.9,20.3c0.1,0.6,0.2,1.2,0.2,1.9c0,2.6-0.9,4.9-2.8,6.8
		c-1.9,1.9-4.1,2.8-6.8,2.8c-2.6,0-4.9-0.9-6.8-2.8c-1.9-1.9-2.8-4.1-2.8-6.8c0-2.6,0.9-4.9,2.8-6.8c1.9-1.9,4.1-2.8,6.8-2.8
		c0.9,0,1.8,0.1,2.7,0.4c0.2-1.3,0.8-2.5,1.8-3.5c-1.4-0.5-2.9-0.7-4.4-0.7c-3.7,0-6.8,1.3-9.5,3.9c-2.6,2.6-3.9,5.8-3.9,9.5v20.2
		c0,0.5,0.2,1,0.6,1.4c0.4,0.4,0.8,0.6,1.3,0.6c0.5,0,1-0.2,1.3-0.6c0.4-0.4,0.6-0.8,0.6-1.4V31.5c0,0,0.1,0.1,0.1,0.1
		c2.6,2.6,5.8,3.9,9.5,3.9c3.7,0,6.8-1.3,9.5-3.9c2.6-2.6,3.9-5.8,3.9-9.5c0-1.2-0.1-2.3-0.4-3.4C56.5,19.6,55.3,20.2,53.9,20.3z"/>
	<path d="M81.3,25.5c0-1.2,0.4-2.2,1.3-2.9c0.9-0.7,2.1-1,3.6-1H90v-0.7c0-0.9-0.3-1.7-0.9-2.2c-0.6-0.6-1.4-0.8-2.4-0.8
		c-0.7,0-1.3,0.1-1.8,0.3c-0.5,0.2-1,0.6-1.4,1.1c-0.2,0.3-0.5,0.4-0.7,0.4c-0.2,0-0.4-0.1-0.6-0.2C82.1,19.2,82,19,82,18.7
		c0-0.2,0-0.3,0.1-0.5c0.4-0.7,1-1.2,1.8-1.6c0.8-0.4,1.7-0.6,2.8-0.6c1.6,0,2.8,0.4,3.7,1.3c0.9,0.9,1.3,2,1.3,3.4v7.6
		c0,0.2-0.1,0.4-0.3,0.6c-0.2,0.2-0.4,0.3-0.6,0.3c-0.2,0-0.4-0.1-0.6-0.3c-0.2-0.2-0.3-0.4-0.3-0.6v-1c-0.3,0.6-0.9,1.1-1.6,1.5
		c-0.7,0.4-1.5,0.5-2.4,0.5c-1.5,0-2.7-0.3-3.5-1C81.7,27.7,81.3,26.7,81.3,25.5z M83.1,25.5c0,0.7,0.3,1.3,0.8,1.7
		c0.5,0.4,1.3,0.6,2.4,0.6c1,0,1.9-0.3,2.7-0.9c0.8-0.6,1.1-1.5,1.1-2.6v-1.2h-3.9c-0.9,0-1.7,0.2-2.2,0.6
		C83.3,24.1,83.1,24.7,83.1,25.5z"/>
	<path d="M94.1,17.9c-0.2-0.2-0.2-0.4-0.2-0.6c0-0.2,0.1-0.4,0.2-0.6c0.2-0.2,0.4-0.2,0.6-0.2h1.1v-2.9c0-0.2,0.1-0.4,0.3-0.6
		c0.2-0.2,0.4-0.3,0.6-0.3c0.2,0,0.5,0.1,0.6,0.3c0.2,0.2,0.3,0.4,0.3,0.6v2.9h1.8c0.2,0,0.4,0.1,0.6,0.2c0.2,0.2,0.2,0.4,0.2,0.6
		c0,0.2-0.1,0.4-0.2,0.6c-0.2,0.2-0.4,0.2-0.6,0.2h-1.8v7.7c0,0.6,0.1,1,0.4,1.4c0.3,0.3,0.7,0.5,1.2,0.5c0.2,0,0.4,0.1,0.6,0.2
		c0.2,0.2,0.3,0.4,0.3,0.6c0,0.2-0.1,0.4-0.3,0.6c-0.2,0.2-0.4,0.2-0.6,0.2c-1.1,0-1.9-0.3-2.5-1c-0.6-0.6-0.9-1.5-0.9-2.5v-7.7
		h-1.1C94.4,18.1,94.2,18.1,94.1,17.9z"/>
	<path d="M102,25.5c0-1.2,0.4-2.2,1.3-2.9c0.9-0.7,2.1-1,3.6-1h3.9v-0.7c0-0.9-0.3-1.7-0.9-2.2c-0.6-0.6-1.4-0.8-2.4-0.8
		c-0.7,0-1.3,0.1-1.8,0.3c-0.5,0.2-1,0.6-1.4,1.1c-0.2,0.3-0.5,0.4-0.7,0.4c-0.2,0-0.4-0.1-0.6-0.2c-0.2-0.2-0.2-0.4-0.2-0.6
		c0-0.2,0-0.3,0.1-0.5c0.4-0.7,1-1.2,1.8-1.6c0.8-0.4,1.7-0.6,2.8-0.6c1.6,0,2.8,0.4,3.7,1.3c0.9,0.9,1.3,2,1.3,3.4v7.6
		c0,0.2-0.1,0.4-0.3,0.6c-0.2,0.2-0.4,0.3-0.6,0.3c-0.2,0-0.4-0.1-0.6-0.3c-0.2-0.2-0.3-0.4-0.3-0.6v-1c-0.3,0.6-0.9,1.1-1.6,1.5
		c-0.7,0.4-1.5,0.5-2.4,0.5c-1.5,0-2.7-0.3-3.5-1C102.4,27.7,102,26.7,102,25.5z M103.8,25.5c0,0.7,0.3,1.3,0.8,1.7
		c0.5,0.4,1.3,0.6,2.4,0.6c1,0,1.9-0.3,2.7-0.9c0.8-0.6,1.1-1.5,1.1-2.6v-1.2h-3.9c-0.9,0-1.7,0.2-2.2,0.6
		C104,24.1,103.8,24.7,103.8,25.5z"/>
	<path d="M143.6,26.1V10.2c0-0.2,0.1-0.4,0.3-0.6c0.2-0.2,0.4-0.3,0.6-0.3c0.2,0,0.5,0.1,0.6,0.3c0.2,0.2,0.3,0.4,0.3,0.6v15.9
		c0,1.1,0.4,1.6,1.1,1.6c0.2,0,0.4,0.1,0.6,0.2c0.2,0.2,0.3,0.4,0.3,0.6c0,0.2-0.1,0.4-0.3,0.6c-0.2,0.2-0.4,0.2-0.6,0.2
		c-0.9,0-1.6-0.3-2.1-0.8C143.8,27.9,143.6,27.1,143.6,26.1z"/>
	<path d="M148.8,25.5c0-1.2,0.4-2.2,1.3-2.9c0.9-0.7,2.1-1,3.6-1h3.9v-0.7c0-0.9-0.3-1.7-0.9-2.2c-0.6-0.6-1.4-0.8-2.4-0.8
		c-0.7,0-1.3,0.1-1.8,0.3s-1,0.6-1.4,1.1c-0.2,0.3-0.5,0.4-0.7,0.4c-0.2,0-0.4-0.1-0.6-0.2c-0.2-0.2-0.2-0.4-0.2-0.6
		c0-0.2,0-0.3,0.1-0.5c0.4-0.7,1-1.2,1.8-1.6c0.8-0.4,1.7-0.6,2.8-0.6c1.6,0,2.8,0.4,3.7,1.3c0.9,0.9,1.3,2,1.3,3.4v7.6
		c0,0.2-0.1,0.4-0.3,0.6c-0.2,0.2-0.4,0.3-0.6,0.3c-0.2,0-0.4-0.1-0.6-0.3c-0.2-0.2-0.3-0.4-0.3-0.6v-1c-0.3,0.6-0.9,1.1-1.6,1.5
		c-0.7,0.4-1.5,0.5-2.4,0.5c-1.5,0-2.7-0.3-3.5-1C149.2,27.7,148.8,26.7,148.8,25.5z M150.6,25.5c0,0.7,0.3,1.3,0.8,1.7
		c0.5,0.4,1.3,0.6,2.4,0.6c1,0,1.9-0.3,2.7-0.9c0.8-0.6,1.1-1.5,1.1-2.6v-1.2h-3.9c-0.9,0-1.7,0.2-2.2,0.6
		C150.9,24.1,150.6,24.7,150.6,25.5z"/>
	<path d="M162.6,28.4V17.1c0-0.3,0.1-0.5,0.3-0.6c0.2-0.2,0.4-0.3,0.6-0.3c0.3,0,0.5,0.1,0.6,0.3c0.2,0.2,0.3,0.4,0.3,0.6V18
		c0.3-0.6,0.8-1,1.4-1.4c0.7-0.4,1.4-0.5,2.3-0.5c0.8,0,1.5,0.1,2.2,0.3c0.6,0.2,1.1,0.4,1.5,0.8c0.4,0.3,0.7,0.7,0.9,1.1
		c0.2,0.4,0.4,0.9,0.5,1.3c0.1,0.4,0.1,0.9,0.1,1.4v7.4c0,0.3-0.1,0.5-0.3,0.6c-0.2,0.2-0.4,0.3-0.6,0.3c-0.3,0-0.5-0.1-0.6-0.3
		c-0.2-0.2-0.3-0.4-0.3-0.6v-7.1c0-0.6,0-1.1-0.1-1.5c-0.1-0.4-0.3-0.8-0.5-1.2c-0.2-0.3-0.6-0.6-1-0.8c-0.4-0.2-1-0.3-1.7-0.3
		c-2.5,0-3.7,1.3-3.7,3.9v6.9c0,0.3-0.1,0.5-0.3,0.6c-0.2,0.2-0.4,0.3-0.6,0.3c-0.3,0-0.5-0.1-0.6-0.3
		C162.7,28.9,162.6,28.7,162.6,28.4z"/>
	<path d="M175.7,22.7c0-2.1,0.5-3.8,1.5-4.9c1-1.2,2.4-1.7,4.2-1.7c0.7,0,1.4,0.1,1.9,0.3c0.6,0.2,1,0.4,1.4,0.7
		c0.4,0.3,0.7,0.6,1,1s0.5,0.8,0.6,1.2c0.1,0.4,0.2,0.8,0.3,1.2c0.1,0.4,0.1,0.7,0.1,1.1c0,0.3,0,0.5,0,0.6c0,0.1-0.1,0.3-0.1,0.5
		c-0.1,0.2-0.2,0.4-0.3,0.5c-0.2,0.1-0.4,0.1-0.6,0.1h-8.1c0,1.4,0.4,2.5,1.1,3.3c0.7,0.8,1.8,1.2,3.1,1.2c0.7,0,1.3-0.1,1.8-0.3
		c0.5-0.2,1-0.5,1.5-0.9c0.2-0.1,0.3-0.2,0.5-0.2c0.2,0,0.4,0.1,0.6,0.2c0.2,0.2,0.2,0.4,0.2,0.6s-0.1,0.4-0.3,0.6
		c-0.2,0.2-0.5,0.4-0.8,0.6c-0.3,0.2-0.8,0.4-1.5,0.6c-0.7,0.2-1.4,0.3-2.1,0.3c-1.9,0-3.4-0.5-4.4-1.6
		C176.2,26.7,175.7,25,175.7,22.7z M177.5,21.7h7.5c0-0.5-0.1-1-0.2-1.5s-0.3-0.9-0.5-1.3c-0.2-0.4-0.6-0.7-1.1-0.9
		c-0.5-0.2-1.1-0.3-1.8-0.3c-1.2,0-2.1,0.4-2.8,1.1C178,19.5,177.6,20.5,177.5,21.7z"/>
	<g>
		<g>
			<path d="M77.5,12.5c0-0.3,0.1-0.5,0.3-0.7c0.2-0.2,0.4-0.3,0.7-0.3s0.5,0.1,0.7,0.3c0.2,0.2,0.3,0.4,0.3,0.7v10.2
				c0,1.8-0.7,3.4-2,4.7c-1.3,1.3-2.9,2-4.7,2c-1.8,0-3.4-0.7-4.7-2c-1.3-1.3-2-2.9-2-4.7c0-1.8,0.7-3.4,2-4.7c1.3-1.3,2.9-2,4.7-2
				c1.8,0,3.4,0.7,4.7,2c0,0,0,0,0,0V12.5z M77.7,22.7c0-1.4-0.5-2.6-1.5-3.5s-2.2-1.5-3.5-1.5c-1.4,0-2.6,0.5-3.5,1.5
				c-1,1-1.5,2.2-1.5,3.5c0,1.4,0.5,2.6,1.5,3.5c1,1,2.2,1.5,3.5,1.5c1.4,0,2.6-0.5,3.5-1.5C77.2,25.3,77.7,24.1,77.7,22.7z"/>
		</g>
	</g>
	<g>
		<g>
			<path d="M129.8,32.8c0,0.3-0.1,0.5-0.3,0.7c-0.2,0.2-0.4,0.3-0.7,0.3c-0.3,0-0.5-0.1-0.7-0.3c-0.2-0.2-0.3-0.4-0.3-0.7V22.7
				c0-1.8,0.6-3.4,1.9-4.7c1.3-1.3,2.9-1.9,4.7-1.9c1.8,0,3.4,0.6,4.7,1.9c1.3,1.3,1.9,2.9,1.9,4.7c0,1.8-0.6,3.4-1.9,4.7
				c-1.3,1.3-2.9,1.9-4.7,1.9c-1.8,0-3.4-0.6-4.7-1.9c0,0,0,0,0,0V32.8z M129.6,22.7c0,1.4,0.5,2.6,1.5,3.5c1,1,2.2,1.5,3.5,1.5
				c1.4,0,2.6-0.5,3.5-1.5c1-1,1.5-2.2,1.5-3.5c0-1.4-0.5-2.6-1.5-3.5c-1-1-2.2-1.5-3.5-1.5c-1.4,0-2.6,0.5-3.5,1.5
				C130.1,20.1,129.6,21.3,129.6,22.7z"/>
		</g>
	</g>
	<path class="st1" d="M120.9,21.6c0.7,0,1.3,0.6,1.3,1.3c0,0.7-0.6,1.3-1.3,1.3c-0.7,0-1.3-0.6-1.3-1.3
		C119.6,22.1,120.2,21.6,120.9,21.6 M120.9,19.3c-1.9,0-3.5,1.6-3.5,3.5s1.6,3.5,3.5,3.5s3.5-1.6,3.5-3.5S122.8,19.3,120.9,19.3
		L120.9,19.3z"/>
	<path class="st1" d="M5.8,28.3c1.2,0,2.1,1,2.1,2.1s-1,2.1-2.1,2.1s-2.1-1-2.1-2.1S4.6,28.3,5.8,28.3 M5.8,24.6
		c-3.2,0-5.8,2.6-5.8,5.8s2.6,5.8,5.8,5.8s5.8-2.6,5.8-5.8S9,24.6,5.8,24.6L5.8,24.6z"/>
	<path class="st1" d="M53.5,11.8c1.2,0,2.1,1,2.1,2.1s-1,2.1-2.1,2.1c-1.2,0-2.1-1-2.1-2.1S52.3,11.8,53.5,11.8 M53.5,8.2
		c-3.2,0-5.8,2.6-5.8,5.8s2.6,5.8,5.8,5.8c3.2,0,5.8-2.6,5.8-5.8S56.7,8.2,53.5,8.2L53.5,8.2z"/>
</g>
</svg>
