<?xml version="1.0" encoding="utf-8"?>
<!-- Generator: Adobe Illustrator 23.1.1, SVG Export Plug-In . SVG Version: 6.00 Build 0)  -->
<svg version="1.1" id="Layer_1" xmlns="http://www.w3.org/2000/svg" xmlns:xlink="http://www.w3.org/1999/xlink" x="0px" y="0px"
	 viewBox="0 0 1287.4 605" style="enable-background:new 0 0 1287.4 605;" xml:space="preserve">
<style type="text/css">
	.st0{opacity:0.8;}
	.st1{fill:#65C190;}
	.st2{fill:none;stroke:#65C190;stroke-width:0.5;stroke-miterlimit:10;}
	.st3{fill:none;stroke:#65C190;stroke-miterlimit:10;}
	.st4{fill:none;stroke:#65C190;stroke-width:0.7;stroke-miterlimit:10;}
</style>
<g>
	<g class="st0">
		<path class="st1" d="M850.5,9.2c-2.5,0-4.6-2.1-4.6-4.6s2.1-4.6,4.6-4.6s4.6,2.1,4.6,4.6S853,9.2,850.5,9.2z M850.5,2.4
			c-1.2,0-2.2,1-2.2,2.2s1,2.2,2.2,2.2c1.2,0,2.2-1,2.2-2.2S851.7,2.4,850.5,2.4z"/>
		<path class="st1" d="M891.6,55.9c-2.5,0-4.6-2.1-4.6-4.6s2.1-4.6,4.6-4.6s4.6,2.1,4.6,4.6S894.2,55.9,891.6,55.9z M891.6,49.1
			c-1.2,0-2.2,1-2.2,2.2c0,1.2,1,2.2,2.2,2.2s2.2-1,2.2-2.2C893.8,50.1,892.8,49.1,891.6,49.1z"/>
		<path class="st1" d="M1003.3,18.4c-2.5,0-4.6-2.1-4.6-4.6s2.1-4.6,4.6-4.6s4.6,2.1,4.6,4.6S1005.9,18.4,1003.3,18.4z M1003.3,11.6
			c-1.2,0-2.2,1-2.2,2.2s1,2.2,2.2,2.2s2.2-1,2.2-2.2S1004.5,11.6,1003.3,11.6z"/>
		<path class="st1" d="M9.8,557.6c-5.4,0-9.8-4.4-9.8-9.8s4.4-9.8,9.8-9.8c5.4,0,9.8,4.4,9.8,9.8S15.2,557.6,9.8,557.6z M9.8,543.2
			c-2.5,0-4.6,2.1-4.6,4.6c0,2.5,2.1,4.6,4.6,4.6c2.5,0,4.6-2.1,4.6-4.6C14.4,545.3,12.3,543.2,9.8,543.2z"/>
		<path class="st1" d="M41.5,578.6c-4.4,0-8-3.6-8-8c0-4.4,3.6-8,8-8c4.4,0,8,3.6,8,8C49.6,575.1,46,578.6,41.5,578.6z M41.5,566.9
			c-2.1,0-3.8,1.7-3.8,3.8c0,2.1,1.7,3.8,3.8,3.8c2.1,0,3.8-1.7,3.8-3.8C45.3,568.6,43.6,566.9,41.5,566.9z"/>
		<path class="st1" d="M589,554.8c-5.8,0-10.6-4.7-10.6-10.6c0-5.8,4.7-10.6,10.6-10.6c5.8,0,10.6,4.7,10.6,10.6
			C599.6,550,594.8,554.8,589,554.8z M589,539.2c-2.7,0-5,2.2-5,5c0,2.7,2.2,5,5,5c2.7,0,5-2.2,5-5C594,541.5,591.7,539.2,589,539.2
			z"/>
		<path class="st1" d="M1060.6,512.2c-2.5,0-4.6-2.1-4.6-4.6c0-2.5,2.1-4.6,4.6-4.6c2.5,0,4.6,2.1,4.6,4.6
			C1065.2,510.1,1063.2,512.2,1060.6,512.2z M1060.6,505.4c-1.2,0-2.2,1-2.2,2.2c0,1.2,1,2.2,2.2,2.2c1.2,0,2.2-1,2.2-2.2
			C1062.8,506.4,1061.8,505.4,1060.6,505.4z"/>
		<path class="st1" d="M1129.7,117.1c-2.5,0-4.6-2.1-4.6-4.6s2.1-4.6,4.6-4.6c2.5,0,4.6,2.1,4.6,4.6S1132.2,117.1,1129.7,117.1z
			 M1129.7,110.3c-1.2,0-2.2,1-2.2,2.2c0,1.2,1,2.2,2.2,2.2c1.2,0,2.2-1,2.2-2.2C1131.8,111.3,1130.9,110.3,1129.7,110.3z"/>
		<path class="st1" d="M1280.7,341.1c-2.5,0-4.6-2.1-4.6-4.6c0-2.5,2.1-4.6,4.6-4.6c2.5,0,4.6,2.1,4.6,4.6
			C1285.3,339.1,1283.2,341.1,1280.7,341.1z M1280.7,334.4c-1.2,0-2.2,1-2.2,2.2c0,1.2,1,2.2,2.2,2.2c1.2,0,2.2-1,2.2-2.2
			C1282.8,335.3,1281.9,334.4,1280.7,334.4z"/>
		<path class="st1" d="M1282.8,122.6c-2.5,0-4.6-2.1-4.6-4.6c0-2.5,2.1-4.6,4.6-4.6c2.5,0,4.6,2.1,4.6,4.6
			C1287.4,120.5,1285.4,122.6,1282.8,122.6z M1282.8,115.8c-1.2,0-2.2,1-2.2,2.2c0,1.2,1,2.2,2.2,2.2c1.2,0,2.2-1,2.2-2.2
			C1285,116.8,1284,115.8,1282.8,115.8z"/>
		<path class="st1" d="M541.2,119.3c-2.5,0-4.6-2.1-4.6-4.6s2.1-4.6,4.6-4.6s4.6,2.1,4.6,4.6S543.7,119.3,541.2,119.3z M541.2,112.5
			c-1.2,0-2.2,1-2.2,2.2s1,2.2,2.2,2.2s2.2-1,2.2-2.2S542.4,112.5,541.2,112.5z"/>
		<path class="st1" d="M701.9,259.6c-2.5,0-4.6-2.1-4.6-4.6s2.1-4.6,4.6-4.6s4.6,2.1,4.6,4.6S704.5,259.6,701.9,259.6z M701.9,252.8
			c-1.2,0-2.2,1-2.2,2.2s1,2.2,2.2,2.2s2.2-1,2.2-2.2S703.1,252.8,701.9,252.8z"/>
		<path class="st1" d="M1119.4,512.2c-2.5,0-4.6-2.1-4.6-4.6c0-2.5,2.1-4.6,4.6-4.6c2.5,0,4.6,2.1,4.6,4.6
			C1124,510.1,1122,512.2,1119.4,512.2z M1119.4,505.4c-1.2,0-2.2,1-2.2,2.2c0,1.2,1,2.2,2.2,2.2c1.2,0,2.2-1,2.2-2.2
			C1121.6,506.4,1120.6,505.4,1119.4,505.4z"/>
		<path class="st1" d="M731.2,283.7c-2.5,0-4.6-2.1-4.6-4.6c0-2.5,2.1-4.6,4.6-4.6s4.6,2.1,4.6,4.6
			C735.8,281.6,733.8,283.7,731.2,283.7z M731.2,276.9c-1.2,0-2.2,1-2.2,2.2c0,1.2,1,2.2,2.2,2.2s2.2-1,2.2-2.2
			C733.4,277.9,732.4,276.9,731.2,276.9z"/>
		<path class="st1" d="M106.3,374.9c-2.5,0-4.6-2.1-4.6-4.6c0-2.5,2.1-4.6,4.6-4.6s4.6,2.1,4.6,4.6
			C110.9,372.9,108.8,374.9,106.3,374.9z M106.3,368.2c-1.2,0-2.2,1-2.2,2.2c0,1.2,1,2.2,2.2,2.2c1.2,0,2.2-1,2.2-2.2
			C108.5,369.1,107.5,368.2,106.3,368.2z"/>
		<path class="st1" d="M1121.6,364.8c-2.5,0-4.6-2.1-4.6-4.6c0-2.5,2.1-4.6,4.6-4.6c2.5,0,4.6,2.1,4.6,4.6
			C1126.2,362.8,1124.1,364.8,1121.6,364.8z M1121.6,358.1c-1.2,0-2.2,1-2.2,2.2c0,1.2,1,2.2,2.2,2.2c1.2,0,2.2-1,2.2-2.2
			C1123.7,359,1122.8,358.1,1121.6,358.1z"/>
		<path class="st1" d="M1198.1,247.1c-2.5,0-4.6-2.1-4.6-4.6s2.1-4.6,4.6-4.6c2.5,0,4.6,2.1,4.6,4.6S1200.6,247.1,1198.1,247.1z
			 M1198.1,240.4c-1.2,0-2.2,1-2.2,2.2c0,1.2,1,2.2,2.2,2.2c1.2,0,2.2-1,2.2-2.2C1200.3,241.3,1199.3,240.4,1198.1,240.4z"/>
		<path class="st1" d="M1268.4,373c-2.5,0-4.6-2.1-4.6-4.6c0-2.5,2.1-4.6,4.6-4.6c2.5,0,4.6,2.1,4.6,4.6
			C1273,370.9,1270.9,373,1268.4,373z M1268.4,366.3c-1.2,0-2.2,1-2.2,2.2c0,1.2,1,2.2,2.2,2.2c1.2,0,2.2-1,2.2-2.2
			C1270.6,367.2,1269.6,366.3,1268.4,366.3z"/>
		<path class="st1" d="M684.4,375.5c-5.4,0-9.9-4.4-9.9-9.9s4.4-9.9,9.9-9.9c5.4,0,9.9,4.4,9.9,9.9S689.8,375.5,684.4,375.5z
			 M684.4,361c-2.6,0-4.6,2.1-4.6,4.6c0,2.6,2.1,4.6,4.6,4.6c2.6,0,4.6-2.1,4.6-4.6C689,363.1,686.9,361,684.4,361z"/>
		<path class="st1" d="M1121.6,467.6c-7.8,0-14.1-6.3-14.1-14.1c0-7.8,6.3-14.1,14.1-14.1c7.8,0,14.1,6.3,14.1,14.1
			C1135.6,461.3,1129.3,467.6,1121.6,467.6z M1121.6,447c-3.6,0-6.6,3-6.6,6.6c0,3.6,3,6.6,6.6,6.6c3.6,0,6.6-3,6.6-6.6
			C1128.2,449.9,1125.2,447,1121.6,447z"/>
		<path class="st1" d="M596,502.9c-5.1,0-9.3-4.2-9.3-9.3c0-5.1,4.2-9.3,9.3-9.3c5.1,0,9.3,4.2,9.3,9.3
			C605.3,498.7,601.1,502.9,596,502.9z M596,489.2c-2.4,0-4.4,2-4.4,4.4c0,2.4,2,4.4,4.4,4.4c2.4,0,4.4-2,4.4-4.4
			C600.4,491.1,598.4,489.2,596,489.2z"/>
		<path class="st1" d="M578.4,228.8c-5.8,0-10.6-4.7-10.6-10.6s4.7-10.6,10.6-10.6c5.8,0,10.6,4.7,10.6,10.6
			S584.3,228.8,578.4,228.8z M578.4,212.9c-2.9,0-5.3,2.4-5.3,5.3c0,2.9,2.4,5.3,5.3,5.3c2.9,0,5.3-2.4,5.3-5.3
			C583.8,215.3,581.4,212.9,578.4,212.9z"/>
		<path class="st1" d="M23,508c-2.9,0-5.3-2.4-5.3-5.3c0-2.9,2.4-5.3,5.3-5.3c2.9,0,5.3,2.4,5.3,5.3C28.3,505.6,25.9,508,23,508z
			 M23,500c-1.5,0-2.7,1.2-2.7,2.7s1.2,2.7,2.7,2.7c1.5,0,2.7-1.2,2.7-2.7S24.4,500,23,500z"/>
		<path class="st1" d="M975.6,433.5c-5,0-9.1-4.1-9.1-9.1c0-5,4.1-9.1,9.1-9.1c5,0,9.1,4.1,9.1,9.1
			C984.6,429.4,980.6,433.5,975.6,433.5z M975.6,419.4c-2.8,0-5,2.3-5,5s2.3,5,5,5c2.8,0,5-2.3,5-5S978.3,419.4,975.6,419.4z"/>
	</g>
	<g class="st0">
		<path class="st2" d="M848,3.1c-47.1-13.9-94.5,100.4-131,133.3c-36.6,32.8-68.7,72.9-113.7,92.7c-48.4,21.2-104.7,15.7-154.2,34.1
			c-55.5,20.5-96.1,68.3-147.4,97.8c-32,18.4-67.6,29.3-100.8,45.3c-69.7,33.6-128.8,80.7-184.4,134.6
			c40.2-42.3,83.7-72.3,136.3-97.5s118.4-30.5,167.7,0.8c40.8,25.9,100.4,11.9,145.1-6.6c34-14,59.7-42.3,84.2-69.7
			c30.6-34.2,91.6-19.1,136.9-26s93-20.1,122.8-55c29.4-34.4,88.3-22.4,133.6-23.2c30.6-0.5,61.2-1,91.8-1.5
			c53-0.9,105.8-15.7,158.7-19"/>
		<path class="st2" d="M47.4,565.5c45.5-42.9,46.6-94,95.6-103.9c49-9.9,99.7,0.1,148.6,11s98.9,22.5,148.4,15.8
			c44-5.9,85.1-26.1,128.9-33.4c99.4-16.6,201.2,34,300.5,16.7c40.1-7,78.1-24.8,118.7-28.5c54.1-4.9,108,16.2,152.2,47.7
			c44.2,31.5,80.3,72.9,115.9,113.9"/>
		<path class="st3" d="M1264.8,369.4c-45.8,7.7-91.2-13.2-132.6-34.4c-41.4-21.2-85.3-43.9-131.6-40.1c-34.3,2.8-65.7,20-94.6,38.7
			c-47.7,30.9-92,66.9-132,107.3c-24.1,24.3-46.7,50.4-74.1,70.8c-27.2,20.2-66.2,34.5-100.4,30.4c13.4-5.3,32.4-2.9,47.1-6.3
			c17.2-4,33.9-10.2,49.6-18.4c31.3-16.4,58.5-40.8,77.4-70.7c20.8-32.9,33.5-73.5,66.2-94.9c20.4-13.3,45.5-16.8,69.7-19.5
			c90.6-9.8,182-12.3,273-7.3c32.1,1.7,63.8,8.8,95.8,11.1c-1.6-0.2-3.2-0.4-4.8-0.6"/>
		<path class="st2" d="M599.5,542.3c143.9-24.6,148.8-103,204.8-172.2c56-69.2,76.4-113.2,141.6-173.8
			c17.3-16.1,88.5-13.9,110.1-23.5c36.5-16.1,68.5-37.4,108.4-35.5c41.8,1.9,70.8-21.1,112.5-19.1"/>
		<path class="st3" d="M47.8,566.6c68.2-54.8,123.5-48.8,192.7-49.1c29.4-0.1,21-28.5,40.1-40.9c17.4-11.3,40-11.2,59.6-18.2
			c42.9-15.2,83.3-36.7,122.7-59.5c42.6-24.7,84.2-51.1,128.3-73c72.4-36.1,150.9-59.8,231.1-69.8c59.9-7.5,121.3-7.5,179-25.2
			c57.7-17.7,113.4-57.8,128.5-116.3"/>
		<path class="st4" d="M47.4,565.5c55.4-51.2,118.4-40.9,185.8-64.8c53.5-18.9,98.3-54.2,151.8-73.1
			c72.3-25.6,144.6-51.2,216.9-76.7c84.1-29.7,169.1-59.7,257.8-69.1c52.8-5.6,107.1-3.7,157.6,12.9c38.8,12.8,74.7,34.2,104.3,62.3
			"/>
		<path class="st2" d="M16.5,540.7c38.2-40.4,95.6-63.2,135.1-105.2c47.1-50.1,85.3-111.8,146.1-144c39.9-21.2,87.2-28.2,123.2-55.6
			c44.8-34.1,66.1-95.7,116.9-120"/>
		<path class="st3" d="M47.4,565.5c63.8-55.4,169.3-53.3,263.5-117.9c44.9-30.8,102-38.2,152.9-57.3c64.6-24.2,129.7-48.6,198-58.6
			c79.2-11.7,195.6,19.2,204.5,60.6c15.9,74.2,173.3,37.6,193.4,110.8"/>
		<path class="st3" d="M47.4,565.5c59.4-53,111.6-110.4,182-147.6c49.8-26.3,101.7-48.3,152.8-71.8c41.8-19.2,83.1-39.4,124.4-59.6
			c34.3-16.7,68.5-33.5,101.9-52C665.6,203,720,166.4,770.9,125.4c36-29,71.7-61.1,116.1-74.1"/>
		<path class="st3" d="M47.4,565.5c76.6-77.3,100.9-103.6,162.6-147.3c53-37.5,113.8-63.7,177.5-76.3c33.5-6.7,67.8-9.7,100.9-18.4
			s65.7-24.1,87.3-50.6c33.1-40.5,80.5-67.2,125.1-94.5c37.2-22.8,73-53.1,116-60C906.2,104,910,65.6,1001,16.1"/>
		<path class="st3" d="M15.5,539.9c0.2-4.2,4.7-9.1,7.4-12.2c5.7-6.4,2.1-12,0.1-20.3"/>
		<path class="st2" d="M16.5,540.7c11.8-17,28.6-34.6,40.4-51.6c8.7-12.6,17.6-25.4,29.2-35.5c6.3-5.5,13.4-10.1,19.7-15.5
			s12.1-12,14.7-20c2.6-7.9,1.7-17.5-4.1-23.6c-3-3.1-6.9-5.2-9.8-8.3c-2.9-3.2-4.4-8.4-1.6-11.7"/>
		<path class="st3" d="M690.6,372.8c13.1,11.3,20.4,29.1,19,46.4c-1.4,17.3-11.5,33.6-26.3,42.7c-12.7,7.7-27.9,10-42.6,11.7
			c-6.5,0.8-13.2,1.5-19.2,4.2c-6,2.8-16.8,3.9-17.6,10.4"/>
		<path class="st2" d="M599.5,542.3c32.9,11.3,71.4,16.4,104.3,5c20.9-7.2,40-18.8,60.7-26.7c48.3-18.6,101.7-16.3,153.5-16.4
			c20.5-0.1,43.1-1.4,57.8-15.7c15.4-15,15.6-42.7,0.6-58"/>
		<path class="st2" d="M700,259.3c1,25.5,10.6,49.7,17.1,74.3c6.6,24.6,10,51.7-0.6,74.9c-12.3,26.8-40.2,42.2-66.4,55.8
			c-15.5,8-30.9,16.1-46.4,24.1c43.6-9.7,92.4-28.3,126.1-57.6c19.9-17.3,38.5-41.9,32.9-67.6c-3.2-14.8-13.9-26.6-22.4-39.2
			c-8.5-12.5-15.3-28.5-9.7-42.5"/>
	</g>
</g>
</svg>
