<?xml version="1.0" encoding="utf-8"?>
<!-- Generator: Adobe Illustrator 23.1.1, SVG Export Plug-In . SVG Version: 6.00 Build 0)  -->
<svg version="1.1" id="Layer_1" xmlns="http://www.w3.org/2000/svg" xmlns:xlink="http://www.w3.org/1999/xlink" x="0px" y="0px"
	 viewBox="0 0 21.3 20.8" style="enable-background:new 0 0 21.3 20.8;" xml:space="preserve">
<style type="text/css">
	.st0{fill:#58595B;}
</style>
<g>
	<path class="st0" d="M19.9,5.3c-1-1.6-2.2-2.9-3.9-3.9c-1.6-1-3.4-1.4-5.4-1.4C8.7,0,6.9,0.5,5.3,1.4c-1.6,1-2.9,2.2-3.9,3.9
		C0.5,6.9,0,8.7,0,10.7c0,2.3,0.7,4.4,2,6.3c1.4,1.9,3.1,3.1,5.3,3.9c0.2,0,0.4,0,0.6-0.1C8,20.6,8,20.4,8,20.3c0,0,0-0.3,0-0.7
		c0-0.5,0-0.9,0-1.2l-0.3,0.1c-0.2,0-0.5,0.1-0.8,0c-0.3,0-0.6,0-1-0.1c-0.3-0.1-0.6-0.2-0.9-0.4c-0.3-0.2-0.5-0.5-0.6-0.9l-0.1-0.3
		C4.2,16.5,4,16.2,3.8,16c-0.2-0.3-0.4-0.4-0.6-0.5l-0.1-0.1c-0.1,0-0.1-0.1-0.2-0.2c-0.1-0.1-0.1-0.1-0.1-0.2c0-0.1,0-0.1,0.1-0.2
		c0.1,0,0.2-0.1,0.4-0.1l0.3,0c0.2,0,0.4,0.1,0.7,0.3c0.3,0.2,0.5,0.4,0.7,0.7c0.2,0.4,0.5,0.7,0.8,0.9C6,17,6.3,17.1,6.6,17.1
		c0.3,0,0.6,0,0.8-0.1c0.2,0,0.4-0.1,0.6-0.2c0.1-0.6,0.3-1.1,0.7-1.4c-0.5-0.1-1-0.1-1.4-0.3C6.9,15,6.4,14.8,6,14.6
		c-0.4-0.2-0.8-0.6-1.1-0.9c-0.3-0.4-0.5-0.9-0.7-1.5c-0.2-0.6-0.3-1.3-0.3-2.1C3.9,9,4.2,8,5,7.2C4.6,6.4,4.6,5.5,5.1,4.4
		c0.3-0.1,0.7,0,1.2,0.2C6.8,4.8,7.2,5,7.4,5.1C7.7,5.3,7.8,5.4,8,5.5c0.9-0.2,1.7-0.4,2.7-0.4c0.9,0,1.8,0.1,2.7,0.4l0.5-0.3
		c0.4-0.2,0.8-0.4,1.3-0.6c0.5-0.2,0.9-0.2,1.1-0.2c0.4,1,0.5,2,0.1,2.8c0.7,0.8,1.1,1.7,1.1,2.9c0,0.8-0.1,1.5-0.3,2.1
		c-0.2,0.6-0.4,1.1-0.7,1.5c-0.3,0.4-0.7,0.7-1.1,0.9c-0.4,0.2-0.9,0.4-1.3,0.5c-0.4,0.1-0.9,0.2-1.4,0.3c0.5,0.4,0.7,1.1,0.7,2v2.9
		c0,0.2,0.1,0.3,0.2,0.4c0.1,0.1,0.3,0.1,0.5,0.1c2.1-0.7,3.9-2,5.3-3.9c1.4-1.9,2-3.9,2-6.3C21.3,8.7,20.8,6.9,19.9,5.3L19.9,5.3z
		 M19.9,5.3"/>
</g>
</svg>
