<?xml version="1.0" encoding="utf-8"?>
<!-- Generator: Adobe Illustrator 23.1.1, SVG Export Plug-In . SVG Version: 6.00 Build 0)  -->
<svg version="1.1" id="Layer_1" xmlns="http://www.w3.org/2000/svg" xmlns:xlink="http://www.w3.org/1999/xlink" x="0px" y="0px"
	 viewBox="0 0 19.1 19.1" style="enable-background:new 0 0 19.1 19.1;" xml:space="preserve">
<style type="text/css">
	.st0{fill:#58595B;}
</style>
<g id="XMLID_2095_">
	<g id="XMLID_2097_">
		<rect id="XMLID_2100_" x="0.4" y="6.4" class="st0" width="3.9" height="12.7"/>
		<path id="XMLID_2098_" class="st0" d="M2.3,4.7c1.3,0,2.3-1.1,2.3-2.3S3.6,0,2.3,0C1,0,0,1.1,0,2.3S1,4.7,2.3,4.7z"/>
	</g>
	<path id="XMLID_2096_" class="st0" d="M10.6,12.4c0-1.8,0.8-2.9,2.4-2.9c1.4,0,2.1,1,2.1,2.9c0,1.8,0,6.7,0,6.7h3.9
		c0,0,0-4.6,0-8.1c0-3.4-1.9-5.1-4.6-5.1c-2.7,0-3.8,2.1-3.8,2.1V6.4H6.8v12.7h3.8C10.6,19.1,10.6,14.4,10.6,12.4z"/>
</g>
</svg>
