<?xml version="1.0" encoding="utf-8"?>
<!-- Generator: Adobe Illustrator 23.1.1, SVG Export Plug-In . SVG Version: 6.00 Build 0)  -->
<svg version="1.1" id="Layer_1" xmlns="http://www.w3.org/2000/svg" xmlns:xlink="http://www.w3.org/1999/xlink" x="0px" y="0px"
	 viewBox="0 0 22.7 18.5" style="enable-background:new 0 0 22.7 18.5;" xml:space="preserve">
<style type="text/css">
	.st0{fill:#58595B;}
</style>
<g>
	<path class="st0" d="M22.7,2.2C21.9,2.6,21,2.8,20,2.9c1-0.6,1.7-1.5,2-2.6c-0.9,0.5-1.9,0.9-3,1.1C18.3,0.6,17.1,0,15.7,0
		c-2.6,0-4.7,2.1-4.7,4.7c0,0.4,0,0.7,0.1,1.1C7.3,5.5,3.9,3.7,1.6,0.9C1.2,1.5,1,2.3,1,3.2c0,1.6,0.8,3,2.1,3.9
		C2.3,7,1.5,6.8,0.9,6.5v0.1c0,2.3,1.6,4.1,3.7,4.6c-0.4,0.1-0.8,0.2-1.2,0.2c-0.3,0-0.6,0-0.9-0.1c0.6,1.9,2.3,3.2,4.4,3.2
		c-1.6,1.2-3.6,2-5.8,2c-0.4,0-0.7,0-1.1-0.1c2.1,1.3,4.5,2.1,7.1,2.1c8.6,0,13.3-7.1,13.3-13.3c0-0.2,0-0.4,0-0.6
		C21.3,3.9,22.1,3.1,22.7,2.2L22.7,2.2z"/>
</g>
</svg>
