<?xml version="1.0" encoding="utf-8"?>
<!-- Generator: Adobe Illustrator 23.1.1, SVG Export Plug-In . SVG Version: 6.00 Build 0)  -->
<svg version="1.1" id="Layer_1" xmlns="http://www.w3.org/2000/svg" xmlns:xlink="http://www.w3.org/1999/xlink" x="0px" y="0px"
	 viewBox="0 0 304.5 72.2" style="enable-background:new 0 0 304.5 72.2;" xml:space="preserve">
<style type="text/css">
	.st0{fill:#FFFFFF;}
	.st1{fill:#65C190;}
</style>
<g>
	<path class="st0" d="M44.6,3.1v33c0,6-2.1,11.2-6.4,15.4C34,55.8,28.8,58,22.8,58c-2.2,0-4.3-0.3-6.3-0.9c1.6-1.5,2.7-3.5,3.1-5.7
		c1,0.2,2.1,0.3,3.2,0.3c4.3,0,8-1.5,11-4.6c3-3,4.6-6.7,4.6-11c0-4.3-1.5-8-4.6-11c-3-3-6.7-4.6-11-4.6c-4.3,0-8,1.5-11,4.6
		c-3,3-4.6,6.7-4.6,11c0,1.1,0.1,2.2,0.4,3.3c-2.2,0.4-4.2,1.5-5.7,3.1c-0.6-2-0.9-4.2-0.9-6.4c0-6,2.1-11.2,6.4-15.4
		c4.3-4.3,9.4-6.4,15.4-6.4c6,0,11.2,2.1,15.4,6.4c0.1,0.1,0.1,0.1,0.2,0.2V3.1c0-0.9,0.3-1.6,0.9-2.2C39.9,0.3,40.6,0,41.5,0
		c0.9,0,1.6,0.3,2.2,0.9C44.3,1.5,44.6,2.3,44.6,3.1z M87.9,33c0.2,1,0.3,2,0.3,3.1c0,4.3-1.5,8-4.6,11c-3,3-6.7,4.6-11,4.6
		c-4.3,0-8-1.5-11-4.6c-3-3-4.6-6.7-4.6-11c0-4.3,1.5-8,4.6-11c3-3,6.7-4.6,11-4.6c1.5,0,3,0.2,4.4,0.6c0.3-2.2,1.4-4.1,2.9-5.7
		c-2.3-0.8-4.7-1.2-7.2-1.2c-6,0-11.2,2.1-15.4,6.4c-4.3,4.3-6.4,9.4-6.4,15.4v33c0,0.9,0.3,1.6,0.9,2.2c0.6,0.6,1.3,0.9,2.2,0.9
		c0.9,0,1.6-0.3,2.2-0.9c0.6-0.6,0.9-1.3,0.9-2.2V51.4c0.1,0.1,0.1,0.1,0.2,0.2c4.3,4.3,9.4,6.4,15.4,6.4c6,0,11.2-2.1,15.4-6.4
		c4.3-4.3,6.4-9.4,6.4-15.4c0-1.9-0.2-3.7-0.7-5.5C92.2,32,90.1,32.9,87.9,33z"/>
	<path class="st0" d="M132.5,41.5c0-2,0.7-3.6,2.1-4.7c1.4-1.1,3.3-1.7,5.8-1.7h6.4v-1.2c0-1.5-0.5-2.7-1.4-3.6
		c-1-0.9-2.3-1.3-3.9-1.3c-1.2,0-2.2,0.2-3,0.6c-0.8,0.4-1.6,1-2.3,1.8c-0.4,0.4-0.8,0.6-1.2,0.6c-0.4,0-0.7-0.1-0.9-0.4
		c-0.3-0.3-0.4-0.6-0.4-0.9c0-0.3,0.1-0.5,0.2-0.8c0.7-1.1,1.7-1.9,2.9-2.6c1.3-0.6,2.8-1,4.6-1c2.6,0,4.6,0.7,6.1,2.1
		c1.4,1.4,2.1,3.3,2.1,5.6v12.5c0,0.4-0.1,0.7-0.4,1c-0.3,0.3-0.6,0.4-1,0.4c-0.4,0-0.7-0.1-1-0.4c-0.3-0.3-0.4-0.6-0.4-1v-1.6
		c-0.5,1-1.4,1.8-2.6,2.4c-1.2,0.6-2.5,0.9-3.9,0.9c-2.4,0-4.3-0.6-5.7-1.7C133.2,45.2,132.5,43.6,132.5,41.5z M135.4,41.5
		c0,1.2,0.4,2.2,1.3,2.8c0.9,0.7,2.1,1,3.9,1c1.7,0,3.2-0.5,4.4-1.5c1.2-1,1.8-2.4,1.8-4.3v-1.9h-6.4c-1.5,0-2.7,0.3-3.6,1
		C135.9,39.3,135.4,40.3,135.4,41.5z"/>
	<path class="st0" d="M153.4,29.2c-0.3-0.3-0.4-0.6-0.4-1c0-0.4,0.1-0.7,0.4-1c0.3-0.3,0.6-0.4,1-0.4h1.8v-4.8c0-0.4,0.1-0.7,0.4-1
		c0.3-0.3,0.6-0.4,1-0.4c0.4,0,0.7,0.1,1,0.4s0.4,0.6,0.4,1v4.8h3c0.4,0,0.7,0.1,1,0.4c0.3,0.3,0.4,0.6,0.4,1c0,0.4-0.1,0.7-0.4,1
		c-0.3,0.3-0.6,0.4-1,0.4h-3v12.5c0,1,0.2,1.7,0.7,2.2c0.5,0.5,1.1,0.8,1.9,0.8c0.4,0,0.7,0.1,1,0.4c0.3,0.3,0.4,0.6,0.4,1
		s-0.1,0.7-0.4,1c-0.3,0.3-0.6,0.4-1,0.4c-1.8,0-3.1-0.5-4.1-1.6c-1-1-1.4-2.4-1.4-4.1V29.6h-1.8C154,29.6,153.7,29.4,153.4,29.2z"
		/>
	<path class="st0" d="M166.3,41.5c0-2,0.7-3.6,2.1-4.7c1.4-1.1,3.3-1.7,5.8-1.7h6.4v-1.2c0-1.5-0.5-2.7-1.4-3.6
		c-1-0.9-2.3-1.3-3.9-1.3c-1.2,0-2.2,0.2-3,0.6c-0.8,0.4-1.6,1-2.3,1.8c-0.4,0.4-0.8,0.6-1.2,0.6c-0.4,0-0.7-0.1-0.9-0.4
		c-0.3-0.3-0.4-0.6-0.4-0.9c0-0.3,0.1-0.5,0.2-0.8c0.7-1.1,1.7-1.9,2.9-2.6c1.3-0.6,2.8-1,4.6-1c2.6,0,4.6,0.7,6.1,2.1
		c1.4,1.4,2.1,3.3,2.1,5.6v12.5c0,0.4-0.1,0.7-0.4,1c-0.3,0.3-0.6,0.4-1,0.4c-0.4,0-0.7-0.1-1-0.4c-0.3-0.3-0.4-0.6-0.4-1v-1.6
		c-0.5,1-1.4,1.8-2.6,2.4c-1.2,0.6-2.5,0.9-3.9,0.9c-2.4,0-4.3-0.6-5.7-1.7C167,45.2,166.3,43.6,166.3,41.5z M169.2,41.5
		c0,1.2,0.4,2.2,1.3,2.8c0.9,0.7,2.1,1,3.9,1c1.7,0,3.2-0.5,4.4-1.5c1.2-1,1.8-2.4,1.8-4.3v-1.9h-6.4c-1.5,0-2.7,0.3-3.6,1
		C169.7,39.3,169.2,40.3,169.2,41.5z"/>
	<path class="st0" d="M234.1,42.5V16.6c0-0.4,0.1-0.7,0.4-1c0.3-0.3,0.6-0.4,1-0.4c0.4,0,0.7,0.1,1,0.4c0.3,0.3,0.4,0.6,0.4,1v25.9
		c0,1.7,0.6,2.6,1.8,2.6c0.4,0,0.7,0.1,1,0.4c0.3,0.3,0.4,0.6,0.4,1s-0.1,0.7-0.4,1c-0.3,0.3-0.6,0.4-1,0.4c-1.5,0-2.7-0.4-3.5-1.3
		C234.5,45.5,234.1,44.2,234.1,42.5z"/>
	<path class="st0" d="M242.6,41.5c0-2,0.7-3.6,2.1-4.7c1.4-1.1,3.3-1.7,5.8-1.7h6.4v-1.2c0-1.5-0.5-2.7-1.4-3.6
		c-1-0.9-2.3-1.3-3.9-1.3c-1.2,0-2.2,0.2-3,0.6c-0.8,0.4-1.6,1-2.3,1.8c-0.4,0.4-0.8,0.6-1.2,0.6c-0.4,0-0.7-0.1-0.9-0.4
		c-0.3-0.3-0.4-0.6-0.4-0.9c0-0.3,0.1-0.5,0.2-0.8c0.7-1.1,1.7-1.9,2.9-2.6c1.3-0.6,2.8-1,4.6-1c2.6,0,4.6,0.7,6.1,2.1
		c1.4,1.4,2.1,3.3,2.1,5.6v12.5c0,0.4-0.1,0.7-0.4,1c-0.3,0.3-0.6,0.4-1,0.4c-0.4,0-0.7-0.1-1-0.4c-0.3-0.3-0.4-0.6-0.4-1v-1.6
		c-0.5,1-1.4,1.8-2.6,2.4c-1.2,0.6-2.5,0.9-3.9,0.9c-2.4,0-4.3-0.6-5.7-1.7C243.3,45.2,242.6,43.6,242.6,41.5z M245.6,41.5
		c0,1.2,0.4,2.2,1.3,2.8c0.9,0.7,2.1,1,3.9,1c1.7,0,3.2-0.5,4.4-1.5c1.2-1,1.8-2.4,1.8-4.3v-1.9h-6.4c-1.5,0-2.7,0.3-3.6,1
		C246,39.3,245.6,40.3,245.6,41.5z"/>
	<path class="st0" d="M265.2,46.3V27.9c0-0.4,0.1-0.8,0.4-1c0.3-0.3,0.6-0.4,1-0.4c0.4,0,0.8,0.1,1,0.4c0.3,0.3,0.4,0.6,0.4,1v1.5
		c0.5-0.9,1.2-1.7,2.3-2.3c1.1-0.6,2.3-0.9,3.7-0.9c1.3,0,2.5,0.2,3.5,0.5c1,0.3,1.8,0.7,2.4,1.2c0.6,0.5,1.1,1.1,1.4,1.8
		c0.4,0.7,0.6,1.4,0.7,2.1c0.1,0.7,0.2,1.5,0.2,2.3v12.1c0,0.4-0.1,0.8-0.4,1c-0.3,0.3-0.6,0.4-1,0.4c-0.4,0-0.8-0.1-1-0.4
		c-0.3-0.3-0.4-0.6-0.4-1V34.8c0-1-0.1-1.8-0.2-2.5c-0.2-0.7-0.4-1.3-0.8-1.9c-0.4-0.6-0.9-1-1.7-1.3c-0.7-0.3-1.6-0.4-2.7-0.4
		c-4,0-6,2.1-6,6.3v11.2c0,0.4-0.1,0.8-0.4,1c-0.3,0.3-0.6,0.4-1,0.4c-0.4,0-0.8-0.1-1-0.4C265.3,47.1,265.2,46.7,265.2,46.3z"/>
	<path class="st0" d="M286.5,37.1c0-3.5,0.8-6.1,2.5-8c1.6-1.9,3.9-2.8,6.9-2.8c1.2,0,2.2,0.1,3.2,0.4c0.9,0.3,1.7,0.7,2.3,1.2
		c0.6,0.5,1.1,1,1.6,1.6s0.8,1.2,1,1.9c0.2,0.7,0.4,1.3,0.5,1.9c0.1,0.6,0.1,1.2,0.1,1.7c0,0.4,0,0.8,0,1c0,0.2-0.1,0.5-0.2,0.9
		c-0.1,0.3-0.3,0.6-0.6,0.8c-0.3,0.2-0.6,0.2-1,0.2h-13.2c0,2.3,0.6,4.1,1.8,5.4c1.2,1.3,2.9,2,5,2c1.2,0,2.2-0.2,3-0.5
		c0.8-0.3,1.6-0.8,2.4-1.4c0.3-0.2,0.6-0.3,0.8-0.3c0.4,0,0.7,0.1,0.9,0.4c0.3,0.3,0.4,0.6,0.4,0.9c0,0.4-0.2,0.7-0.5,1
		c-0.3,0.3-0.7,0.7-1.2,1c-0.5,0.3-1.3,0.7-2.4,1c-1.1,0.4-2.2,0.5-3.5,0.5c-3.1,0-5.5-0.9-7.2-2.7
		C287.4,43.5,286.5,40.8,286.5,37.1z M289.5,35.4h12.2c0-0.9-0.1-1.7-0.3-2.4c-0.2-0.7-0.5-1.4-0.9-2.1c-0.4-0.7-1-1.2-1.8-1.5
		c-0.8-0.4-1.7-0.6-2.9-0.6c-1.9,0-3.4,0.6-4.5,1.7C290.2,31.8,289.6,33.4,289.5,35.4z"/>
	<g>
		<g>
			<path class="st0" d="M126.3,20.4c0-0.4,0.2-0.8,0.5-1.1c0.3-0.3,0.7-0.5,1.1-0.5s0.8,0.2,1.1,0.5c0.3,0.3,0.5,0.7,0.5,1.1V37
				c0,3-1.1,5.6-3.2,7.7c-2.1,2.1-4.7,3.2-7.7,3.2c-3,0-5.6-1.1-7.7-3.2c-2.1-2.1-3.2-4.7-3.2-7.7c0-3,1.1-5.6,3.2-7.7
				c2.1-2.1,4.7-3.2,7.7-3.2c3,0,5.6,1.1,7.7,3.2c0,0,0.1,0.1,0.1,0.1V20.4z M126.7,37c0-2.3-0.8-4.2-2.4-5.8
				c-1.6-1.6-3.5-2.4-5.8-2.4c-2.3,0-4.2,0.8-5.8,2.4c-1.6,1.6-2.4,3.5-2.4,5.8c0,2.3,0.8,4.2,2.4,5.8c1.6,1.6,3.5,2.4,5.8,2.4
				c2.3,0,4.2-0.8,5.8-2.4C125.9,41.2,126.7,39.3,126.7,37z"/>
		</g>
	</g>
	<g>
		<g>
			<path class="st0" d="M211.7,53.5c0,0.4-0.2,0.8-0.5,1.1s-0.7,0.5-1.1,0.5c-0.4,0-0.8-0.2-1.1-0.5c-0.3-0.3-0.5-0.7-0.5-1.1V37
				c0-3,1.1-5.5,3.2-7.7c2.1-2.1,4.7-3.2,7.7-3.2c3,0,5.5,1.1,7.7,3.2c2.1,2.1,3.2,4.7,3.2,7.7c0,3-1.1,5.5-3.2,7.7
				c-2.1,2.1-4.7,3.2-7.7,3.2c-3,0-5.5-1.1-7.7-3.2c0,0-0.1-0.1-0.1-0.1V53.5z M211.3,37c0,2.3,0.8,4.2,2.4,5.8
				c1.6,1.6,3.5,2.4,5.8,2.4c2.3,0,4.2-0.8,5.8-2.4c1.6-1.6,2.4-3.5,2.4-5.8c0-2.3-0.8-4.2-2.4-5.8c-1.6-1.6-3.5-2.4-5.8-2.4
				c-2.3,0-4.2,0.8-5.8,2.4C212.1,32.8,211.3,34.7,211.3,37z"/>
		</g>
	</g>
	<path class="st1" d="M197.1,35.1c1.2,0,2.1,0.9,2.1,2.1c0,1.2-0.9,2.1-2.1,2.1s-2.1-0.9-2.1-2.1C195,36.1,196,35.1,197.1,35.1
		 M197.1,31.5c-3.2,0-5.7,2.6-5.7,5.7c0,3.2,2.6,5.7,5.7,5.7s5.7-2.6,5.7-5.7C202.9,34.1,200.3,31.5,197.1,31.5L197.1,31.5z"/>
	<path class="st1" d="M9.4,46.1c1.9,0,3.5,1.6,3.5,3.5c0,1.9-1.6,3.5-3.5,3.5S6,51.5,6,49.6C6,47.7,7.5,46.1,9.4,46.1 M9.4,40.1
		c-5.2,0-9.4,4.2-9.4,9.4S4.2,59,9.4,59s9.4-4.2,9.4-9.4S14.7,40.1,9.4,40.1L9.4,40.1z"/>
	<path class="st1" d="M87.2,19.3c1.9,0,3.5,1.6,3.5,3.5s-1.6,3.5-3.5,3.5c-1.9,0-3.5-1.6-3.5-3.5S85.3,19.3,87.2,19.3 M87.2,13.3
		c-5.2,0-9.4,4.2-9.4,9.4s4.2,9.4,9.4,9.4c5.2,0,9.4-4.2,9.4-9.4S92.4,13.3,87.2,13.3L87.2,13.3z"/>
</g>
</svg>
